  0
SECTION
  2
HEADER
  9
$ACADVER
  1
AC1009
  0
ENDSEC
  0
SECTION
  2
ENTITIES
  0
LINE
  5
0001
  8
0
 62
7
 10
0
 20
0
 11
100
 21
0
  0
LINE
  5
0002
  8
0
 62
7
 10
0
 20
0
 11
100
 21
0
  0
LINE
  5
0003
  8
0
 62
7
 10
0
 20
0
 11
100
 21
0
  0
LINE
  5
0004
  8
0
 62
7
 10
0
 20
0
 11
100
 21
0
  0
LINE
  5
0005
  8
0
 62
7
 10
0
 20
0
 11
100
 21
0
  0
LINE
  5
0006
  8
0
 62
7
 10
0
 20
0
 11
100
 21
0
  0
LINE
  5
0007
  8
0
 62
7
 10
0
 20
0
 11
100
 21
0
  0
LINE
  5
0008
  8
0
 62
7
 10
0
 20
0
 11
100
 21
0
  0
LINE
  5
0009
  8
0
 62
7
 10
0
 20
0
 11
100
 21
0
  0
LINE
  5
000a
  8
0
 62
7
 10
0
 20
0
 11
100
 21
0
  0
LINE
  5
000b
  8
0
 62
7
 10
0
 20
0
 11
100
 21
0
  0
LINE
  5
000c
  8
0
 62
7
 10
0
 20
0
 11
100
 21
0
  0
LINE
  5
000d
  8
0
 62
7
 10
0
 20
0
 11
100
 21
0
  0
LINE
  5
000e
  8
0
 62
7
 10
0
 20
0
 11
100
 21
0
  0
LINE
  5
000f
  8
0
 62
7
 10
0
 20
0
 11
100
 21
0
  0
LINE
  5
0010
  8
0
 62
7
 10
0
 20
0
 11
100
 21
0
  0
LINE
  5
0011
  8
0
 62
7
 10
0
 20
0
 11
100
 21
0
  0
LINE
  5
0012
  8
0
 62
7
 10
0
 20
0
 11
100
 21
0
  0
LINE
  5
0013
  8
0
 62
7
 10
0
 20
0
 11
100
 21
0
  0
LINE
  5
0014
  8
0
 62
7
 10
0
 20
0
 11
100
 21
0
  0
LINE
  5
0015
  8
0
 62
7
 10
0
 20
0
 11
100
 21
0
  0
LINE
  5
0016
  8
0
 62
7
 10
0
 20
0
 11
100
 21
0
  0
LINE
  5
0017
  8
0
 62
7
 10
0
 20
0
 11
100
 21
0
  0
LINE
  5
0018
  8
0
 62
7
 10
0
 20
0
 11
100
 21
0
  0
LINE
  5
0019
  8
0
 62
7
 10
0
 20
0
 11
100
 21
0
  0
LINE
  5
001a
  8
0
 62
7
 10
0
 20
0
 11
100
 21
0
  0
LINE
  5
001b
  8
0
 62
7
 10
0
 20
0
 11
100
 21
0
  0
LINE
  5
001c
  8
0
 62
7
 10
0
 20
0
 11
100
 21
0
  0
LINE
  5
001d
  8
0
 62
7
 10
0
 20
0
 11
100
 21
0
  0
LINE
  5
001e
  8
0
 62
7
 10
0
 20
0
 11
100
 21
0
  0
LINE
  5
001f
  8
0
 62
7
 10
0
 20
0
 11
100
 21
0
  0
LINE
  5
0020
  8
0
 62
7
 10
0
 20
0
 11
100
 21
0
  0
LINE
  5
0021
  8
0
 62
7
 10
0
 20
0
 11
100
 21
0
  0
LINE
  5
0022
  8
0
 62
7
 10
0
 20
0
 11
100
 21
0
  0
LINE
  5
0023
  8
0
 62
7
 10
0
 20
0
 11
100
 21
0
  0
LINE
  5
0024
  8
0
 62
7
 10
0
 20
0
 11
100
 21
0
  0
LINE
  5
0025
  8
0
 62
7
 10
0
 20
0
 11
100
 21
0
  0
LINE
  5
0026
  8
0
 62
7
 10
0
 20
0
 11
100
 21
0
  0
LINE
  5
0027
  8
0
 62
7
 10
0
 20
0
 11
100
 21
0
  0
LINE
  5
0028
  8
0
 62
7
 10
0
 20
0
 11
100
 21
0
  0
LINE
  5
0029
  8
0
 62
7
 10
0
 20
0
 11
100
 21
0
  0
LINE
  5
002a
  8
0
 62
7
 10
0
 20
0
 11
100
 21
0
  0
LINE
  5
002b
  8
0
 62
7
 10
0
 20
0
 11
100
 21
0
  0
LINE
  5
002c
  8
0
 62
7
 10
0
 20
0
 11
100
 21
0
  0
LINE
  5
002d
  8
0
 62
7
 10
0
 20
0
 11
100
 21
0
  0
LINE
  5
002e
  8
0
 62
7
 10
0
 20
0
 11
100
 21
0
  0
LINE
  5
002f
  8
0
 62
7
 10
0
 20
0
 11
100
 21
0
  0
LINE
  5
0030
  8
0
 62
7
 10
0
 20
0
 11
100
 21
0
  0
LINE
  5
0031
  8
0
 62
7
 10
0
 20
0
 11
100
 21
0
  0
LINE
  5
0032
  8
0
 62
7
 10
0
 20
0
 11
100
 21
0
  0
LINE
  5
0033
  8
0
 62
7
 10
100
 20
0
 11
0
 21
0
  0
LINE
  5
0034
  8
0
 62
7
 10
100
 20
0
 11
0
 21
0
  0
LINE
  5
0035
  8
0
 62
7
 10
100
 20
0
 11
0
 21
0
  0
LINE
  5
0036
  8
0
 62
7
 10
50
 20
0
 11
150
 21
0
  0
LINE
  5
0037
  8
0
 62
7
 10
25
 20
0
 11
175
 21
0
  0
LINE
  5
0038
  8
0
 62
7
 10
10
 20
0
 11
90
 21
0
  0
LINE
  5
0039
  8
0
 62
7
 10
7
 20
0
 11
7
 21
0
  0
LINE
  5
003a
  8
0
 62
7
 10
1
 20
0
 11
1
 21
0
  0
LINE
  5
003b
  8
0
 62
7
 10
0
 20
0.05
 11
100
 21
0.05
  0
LINE
  5
003c
  8
0
 62
7
 10
0
 20
0.1
 11
100
 21
0.1
  0
ENDSEC
  0
EOF